<svg width="111" height="97" viewBox="0 0 111 97" fill="none" xmlns="http://www.w3.org/2000/svg">
<circle cx="11.5" cy="3.5" r="3.5" fill="#FCDEAE" fill-opacity="0.51"/>
<circle cx="27.5" cy="3.5" r="3.5" fill="#FCDEAE" fill-opacity="0.51"/>
<circle cx="43.5" cy="3.5" r="3.5" fill="#FCDEAE" fill-opacity="0.51"/>
<circle cx="59.5" cy="3.5" r="3.5" fill="#FCDEAE" fill-opacity="0.51"/>
<circle cx="75.5" cy="3.5" r="3.5" fill="#FCDEAE" fill-opacity="0.51"/>
<circle cx="91.5" cy="3.5" r="3.5" fill="#FCDEAE" fill-opacity="0.51"/>
<circle cx="107.5" cy="3.5" r="3.5" fill="#FCDEAE" fill-opacity="0.51"/>
<circle cx="11.5" cy="21.5" r="3.5" fill="#FCDEAE" fill-opacity="0.51"/>
<circle cx="27.5" cy="21.5" r="3.5" fill="#FCDEAE" fill-opacity="0.51"/>
<circle cx="43.5" cy="21.5" r="3.5" fill="#FCDEAE" fill-opacity="0.51"/>
<circle cx="59.5" cy="21.5" r="3.5" fill="#FCDEAE" fill-opacity="0.51"/>
<circle cx="75.5" cy="21.5" r="3.5" fill="#FCDEAE" fill-opacity="0.51"/>
<circle cx="91.5" cy="21.5" r="3.5" fill="#FCDEAE" fill-opacity="0.51"/>
<circle cx="107.5" cy="21.5" r="3.5" fill="#FCDEAE" fill-opacity="0.51"/>
<circle cx="11.5" cy="39.5" r="3.5" fill="#FCDEAE" fill-opacity="0.51"/>
<circle cx="27.5" cy="39.5" r="3.5" fill="#FCDEAE" fill-opacity="0.51"/>
<circle cx="43.5" cy="39.5" r="3.5" fill="#FCDEAE" fill-opacity="0.51"/>
<circle cx="59.5" cy="39.5" r="3.5" fill="#FCDEAE" fill-opacity="0.51"/>
<circle cx="75.5" cy="39.5" r="3.5" fill="#FCDEAE" fill-opacity="0.51"/>
<circle cx="91.5" cy="39.5" r="3.5" fill="#FCDEAE" fill-opacity="0.51"/>
<circle cx="107.5" cy="39.5" r="3.5" fill="#FCDEAE" fill-opacity="0.51"/>
<circle cx="11.5" cy="57.5" r="3.5" fill="#FCDEAE" fill-opacity="0.51"/>
<circle cx="27.5" cy="57.5" r="3.5" fill="#FCDEAE" fill-opacity="0.51"/>
<circle cx="43.5" cy="57.5" r="3.5" fill="#FCDEAE" fill-opacity="0.51"/>
<circle cx="59.5" cy="57.5" r="3.5" fill="#FCDEAE" fill-opacity="0.51"/>
<circle cx="75.5" cy="57.5" r="3.5" fill="#FCDEAE" fill-opacity="0.51"/>
<circle cx="91.5" cy="57.5" r="3.5" fill="#FCDEAE" fill-opacity="0.51"/>
<circle cx="107.5" cy="57.5" r="3.5" fill="#FCDEAE" fill-opacity="0.51"/>
<circle cx="11.5" cy="75.5" r="3.5" fill="#FCDEAE" fill-opacity="0.51"/>
<circle cx="27.5" cy="75.5" r="3.5" fill="#FCDEAE" fill-opacity="0.51"/>
<circle cx="43.5" cy="75.5" r="3.5" fill="#FCDEAE" fill-opacity="0.51"/>
<circle cx="59.5" cy="75.5" r="3.5" fill="#FCDEAE" fill-opacity="0.51"/>
<circle cx="75.5" cy="75.5" r="3.5" fill="#FCDEAE" fill-opacity="0.51"/>
<circle cx="91.5" cy="75.5" r="3.5" fill="#FCDEAE" fill-opacity="0.51"/>
<circle cx="107.5" cy="75.5" r="3.5" fill="#FCDEAE" fill-opacity="0.51"/>
<circle cx="11.5" cy="93.5" r="3.5" fill="#FCDEAE" fill-opacity="0.51"/>
<circle cx="27.5" cy="93.5" r="3.5" fill="#FCDEAE" fill-opacity="0.51"/>
<circle cx="43.5" cy="93.5" r="3.5" fill="#FCDEAE" fill-opacity="0.51"/>
<circle cx="59.5" cy="93.5" r="3.5" fill="#FCDEAE" fill-opacity="0.51"/>
<circle cx="75.5" cy="93.5" r="3.5" fill="#FCDEAE" fill-opacity="0.51"/>
<circle cx="91.5" cy="93.5" r="3.5" fill="#FCDEAE" fill-opacity="0.51"/>
<circle cx="107.5" cy="93.5" r="3.5" fill="#FCDEAE" fill-opacity="0.51"/>
</svg>
