<svg width="24" height="24" viewBox="0 0 24 24" fill="none" xmlns="http://www.w3.org/2000/svg">
<path d="M12.0159 0.813477C13.5247 0.813477 14.8672 1.76393 15.3662 3.18961H22.7085V5.56574H20.3917L23.8965 13.8822C24.4549 16.2583 22.7085 17.4464 19.7383 17.4464C16.7681 17.4464 14.9148 16.2583 15.5801 13.8822L19.0849 5.56574H15.3781C14.986 6.57559 14.2138 7.34783 13.2039 7.7399V21.0106H23.8965V23.3867H0.135231V21.0106H10.8278V7.72801C9.81796 7.34783 9.04572 6.57559 8.66554 5.56574H4.94689L8.45168 13.8822C9.01008 16.2583 7.26362 17.4464 4.29346 17.4464C1.3233 17.4464 -0.530085 16.2583 0.135231 13.8822L3.64002 5.56574H1.3233V3.18961H8.65366C9.16452 1.76393 10.507 0.813477 12.0159 0.813477ZM12.0159 3.18961C11.7008 3.18961 11.3986 3.31478 11.1758 3.53758C10.953 3.76039 10.8278 4.06258 10.8278 4.37767C10.8278 4.69277 10.953 4.99496 11.1758 5.21776C11.3986 5.44057 11.7008 5.56574 12.0159 5.56574C12.331 5.56574 12.6332 5.44057 12.856 5.21776C13.0788 4.99496 13.2039 4.69277 13.2039 4.37767C13.2039 4.06258 13.0788 3.76039 12.856 3.53758C12.6332 3.31478 12.331 3.18961 12.0159 3.18961ZM19.7383 9.42695L17.9562 13.8822H21.5204L19.7383 9.42695ZM4.29346 9.42695L2.51136 13.8822H6.07556L4.29346 9.42695Z" fill="#2C3E50"/>
</svg>
