<svg width="28" height="23" viewBox="0 0 28 23" fill="none" xmlns="http://www.w3.org/2000/svg">
<path d="M27.5735 9.19149C27.307 8.49184 26.7597 7.8672 26.0935 7.41681C24.1705 6.19574 21.2398 6.10878 19.2583 7.21269C18.1777 7.76365 17.4674 8.85395 17.2463 9.97678C16.8454 11.8215 16.949 14.0164 18.3702 15.3991C20.0274 16.8518 22.4393 17.1728 24.5841 16.576C24.686 16.5564 25.0089 16.4751 25.2316 16.3569L25.2943 16.3301C25.9605 16.0533 26.5957 15.6025 27.07 14.9922C28.1646 13.3917 28.2396 10.9937 27.5735 9.19149ZM24.0816 13.334C24.0059 13.6838 23.7706 14.0462 23.3995 14.1777C22.8087 14.4376 22.0095 14.3655 21.4622 14.0615C21.0032 13.7406 20.9441 13.2032 20.885 12.6947C20.8402 11.6924 20.7678 10.631 21.0486 9.71457C21.2687 9.14702 21.8757 9.00098 22.4247 8.95817C23.0012 8.95817 23.5625 9.04612 23.9186 9.51112C24.1403 9.84468 24.1267 10.2811 24.1705 10.6741C24.1549 11.5022 24.2293 12.4899 24.0816 13.334ZM6.54812 14.2368C6.05955 14.2069 5.51225 14.2497 5.03928 14.1916L5.05389 9.08761L5.08376 9.04512L6.54812 9.03085C6.56338 8.20242 6.57799 7.31392 6.53285 6.55884L0.955881 6.54324L0.0375054 6.55917C0.0229016 7.32919 0.0229016 8.22964 0.0375054 9.01559C0.541002 9.03118 1.01363 9.01558 1.50219 9.06106V14.0041L1.48792 14.2072L0.0229016 14.2371C-0.00763388 15.0365 -0.00763388 15.8367 0.0229016 16.6361H6.54778L6.54812 14.2368ZM22.9707 17.7254C22.35 18.6132 21.5657 19.4709 20.7094 20.138C20.6782 20.1835 20.5896 20.1662 20.5614 20.1244C20.1903 19.8924 19.791 19.7025 19.4352 19.4709C19.9092 18.9043 20.3682 18.3374 20.7234 17.7098H20.263C19.8953 18.2498 19.5096 18.8164 19.0217 19.2946C18.3702 19.0334 17.7787 18.8011 17.1129 18.6252L17.0389 18.5697C17.1425 18.276 17.3343 18.0002 17.393 17.7091H16.9938L16.5945 18.4947C15.7226 18.3059 14.7604 18.203 13.8726 18.1456C13.8277 18.0151 13.8865 17.826 13.8277 17.7091H13.4431C13.4125 17.884 13.4875 18.0158 13.3986 18.1608C12.4812 18.203 11.5937 18.3059 10.7364 18.4821L10.3355 17.7091C10.1891 17.7091 10.0245 17.6812 9.92224 17.7247L10.2913 18.5827L10.2472 18.6252C9.58405 18.817 8.93208 19.0455 8.29426 19.3096L8.23551 19.2797C7.8203 18.829 7.42069 18.3368 7.09476 17.8422C7.02141 17.5936 6.72535 17.739 6.56239 17.7098C6.9162 18.3504 7.39115 18.9166 7.86378 19.4991C7.4645 19.7324 7.06655 19.9926 6.65034 20.1835C5.7453 19.4942 4.95636 18.6646 4.31341 17.726C4.13551 17.6975 4.01835 17.7104 3.83945 17.726C4.90486 19.3836 6.56239 20.837 8.29359 21.6949C8.29359 21.6949 8.29359 21.682 8.30952 21.682C8.32214 21.682 8.35168 21.7089 8.32214 21.7242C9.49176 22.2914 10.7354 22.6983 12.0511 22.8735C16.5938 23.469 20.9295 21.5363 23.4433 17.726C23.2862 17.7099 23.1278 17.7096 22.9707 17.7254ZM16.8023 19.0337L16.8457 19.0045C17.4837 19.1499 18.089 19.3537 18.6516 19.6292C18.1777 20.1659 17.5709 20.6322 17.0094 21.0245C16.6695 21.2273 16.328 21.4477 15.9725 21.6209L15.3376 21.3448L15.381 21.2442C15.9147 20.5323 16.3884 19.8044 16.8023 19.0337ZM13.8865 18.5973C14.7305 18.6132 15.5742 18.7002 16.3572 18.8884L16.3728 18.9325C15.9592 19.7168 15.4401 20.4745 14.8789 21.1855C14.626 21.2153 14.3903 21.1148 14.1391 21.0992L13.8862 21.0693C13.8573 20.2113 13.8417 19.4553 13.8865 18.5973ZM11.0321 18.8588C11.8015 18.7135 12.6 18.5973 13.4281 18.5973L13.4434 21.057C13.1321 21.1274 12.7919 21.1274 12.4958 21.2021C11.8891 20.4878 11.3866 19.7168 10.9581 18.9166L11.0321 18.8588ZM8.64873 19.6448C9.22724 19.3676 9.83296 19.1629 10.4536 19.0042L10.5137 19.0195C10.9415 19.8194 11.4749 20.5748 12.0073 21.3308C11.8018 21.448 11.5489 21.518 11.3425 21.6362C10.3419 21.1419 9.43142 20.4831 8.64906 19.6873V19.6448H8.64873ZM10.5582 22.1307C9.31519 21.8098 8.16017 21.2575 7.09509 20.5027V20.4576C7.45023 20.2415 7.80669 20.0082 8.19004 19.8466C9.03407 20.6777 9.90631 21.303 10.8532 21.8977C10.7795 21.985 10.6614 22.0727 10.5582 22.1307ZM16.0468 22.3186C14.4789 22.6551 12.7321 22.6681 11.1646 22.2907C11.1347 22.2184 11.2386 22.2028 11.2827 22.1603C12.6588 21.2724 14.8032 21.2724 16.1511 22.231C16.1949 22.3186 16.0767 22.2907 16.0468 22.3186ZM17.4677 21.913L16.7724 22.1304C16.6536 22.0723 16.5507 21.985 16.4461 21.8974L16.476 21.8529C17.4232 21.3026 18.2809 20.6319 19.095 19.8323C19.4947 19.992 19.8797 20.2113 20.2358 20.4573C19.4064 21.1148 18.4442 21.5489 17.4677 21.913ZM4.28454 5.43867C4.65051 4.9322 5.05084 4.45147 5.48271 3.99987C5.86605 3.63643 6.22252 3.2876 6.6374 3.02474C7.0224 3.27167 7.45089 3.47745 7.82063 3.70912C7.36227 4.27336 6.88865 4.8429 6.54845 5.45194C6.65134 5.49741 6.8445 5.48314 6.99287 5.45194C7.36227 4.91492 7.76056 4.37724 8.23584 3.89698C8.87044 4.13031 9.49276 4.37658 10.1446 4.55182L10.202 4.60957L9.83362 5.45194C9.99692 5.48314 10.1005 5.46787 10.2621 5.45194C10.3949 5.20633 10.4978 4.93086 10.6458 4.68226C11.5051 4.87211 12.4079 4.97334 13.3252 5.00155C13.4427 5.10477 13.3544 5.32184 13.3989 5.45194H13.7982C13.8417 5.30922 13.7833 5.14726 13.8417 5.01781C14.7006 4.97267 15.6028 4.88538 16.4342 4.6816L16.5062 4.69686L16.9058 5.45128C17.0392 5.45128 17.2165 5.48248 17.32 5.42141L16.9493 4.58037L16.9802 4.55116C17.6596 4.37658 18.2968 4.11504 18.9477 3.85383C19.4077 4.33343 19.8355 4.90032 20.2215 5.45095C20.3835 5.45095 20.5465 5.46688 20.6649 5.42108C20.4822 5.09648 20.2691 4.78997 20.0284 4.50569C19.8329 4.22724 19.6149 3.96537 19.3765 3.72273V3.64739L20.4124 3.05228L20.5617 2.9942C21.4626 3.67606 22.2509 4.49496 22.898 5.42108C23.0756 5.42108 23.2239 5.48215 23.3723 5.4088C21.3875 2.44523 18.1183 0.538451 14.5838 0.263967L14.5682 0.292179L14.538 0.263967C14.1391 0.221151 13.6488 0.204224 13.2204 0.24704C13.0581 0.234428 12.8662 0.24704 12.6734 0.263967C9.12302 0.538451 5.85344 2.35695 3.81058 5.45261C3.95861 5.43867 4.13618 5.49775 4.28454 5.43867ZM10.4257 4.16117L10.3667 4.17378C9.75928 4.01547 9.16683 3.82462 8.60459 3.57835L8.63313 3.49106C9.44696 2.72071 10.3049 2.08047 11.2518 1.58726C11.4749 1.67455 11.6966 1.74658 11.9183 1.8498L11.8748 1.96331C11.3116 2.66296 10.8688 3.41738 10.4257 4.16117ZM13.3691 4.55249C12.9558 4.61057 12.5858 4.53954 12.1699 4.50735C11.7723 4.44893 11.2681 4.40678 10.8688 4.27402C11.298 3.47812 11.8018 2.70611 12.4079 1.99551L13.3551 2.12462C13.3989 2.87936 13.3691 3.75227 13.3691 4.55249ZM13.8274 4.56809C13.7982 3.79508 13.8135 2.93844 13.8274 2.13856C14.1245 2.09607 14.4484 2.05093 14.7451 2.00812C15.322 2.73399 15.8855 3.47812 16.2705 4.27402C15.4705 4.46758 14.6505 4.56628 13.8274 4.56809ZM18.5487 3.54881C17.9706 3.79475 17.3781 4.02775 16.7428 4.16117C16.2845 3.39049 15.7817 2.62015 15.2178 1.87569C15.4252 1.76185 15.6781 1.67455 15.8995 1.55872C16.863 2.03799 17.794 2.72071 18.5773 3.50334L18.5487 3.54881ZM16.6536 1.06286C17.8965 1.38348 19.0655 1.9351 20.1309 2.69117L20.1014 2.74926L19.0814 3.31548H19.0061C18.2231 2.53319 17.3061 1.8498 16.3728 1.31046C16.4023 1.20856 16.551 1.13521 16.6536 1.06286ZM16.0624 0.91682V0.947687C14.7743 1.87569 12.6887 1.96331 11.3282 1.10534C11.2518 1.04726 11.1058 1.01905 11.0899 0.917152C12.6591 0.555378 14.5075 0.52617 16.0624 0.91682ZM7.03634 2.72071C7.96932 2.03799 9.00453 1.52918 10.0998 1.18002C10.1446 1.13455 10.1732 1.09173 10.2316 1.09173V1.1216C10.3497 1.15015 10.439 1.01838 10.5422 1.10468C10.6315 1.18002 10.7361 1.23744 10.8091 1.30979C9.89237 1.87569 8.98926 2.5458 8.1605 3.3583C7.76089 3.21558 7.39248 2.99619 7.03601 2.74926L7.03634 2.72071ZM13.3843 14.3503C11.9936 14.729 10.4835 14.4402 9.47782 13.3917C9.36 13.2464 9.28532 13.0731 9.1665 12.9284L7.16977 12.9423C7.13824 14.1196 7.1243 15.4721 7.16977 16.6357L9.38821 16.6215L9.41775 15.9232C9.67033 16.0393 9.92224 16.1844 10.1732 16.3148C11.7119 16.9554 13.6927 17.1007 15.2171 16.3148C16.3276 15.7058 16.9198 14.5285 16.7565 13.261C16.5945 12.0266 15.4103 10.9064 14.2128 10.6021L10.6312 9.56887L10.3663 9.43743C10.2478 9.33654 10.1735 9.20643 10.2024 9.04512C10.4835 8.56652 11.1353 8.71189 11.6236 8.72484C12.6591 8.87054 13.7242 9.21937 14.3312 10.165C14.9814 10.165 15.7359 10.1776 16.4455 10.1497C16.4757 8.95783 16.4338 7.91168 16.4163 6.70454C15.7505 6.68928 14.9363 6.68928 14.2715 6.71981C14.2416 6.89273 14.3 7.13901 14.226 7.31425L13.546 6.95048C11.9176 6.26743 9.6388 6.19607 8.15984 7.25749C7.19765 7.95416 6.90259 9.20577 7.15417 10.3103C7.34568 11.3555 8.35168 12.1268 9.31386 12.4893C10.6305 12.9539 12.0059 13.2905 13.3398 13.7406C13.4719 13.7996 13.6492 13.9314 13.6206 14.091C13.6213 14.2202 13.4872 14.2948 13.3843 14.3503Z" fill="#2C3E50" fill-opacity="0.95"/>
</svg>
