<svg width="52" height="42" viewBox="0 0 52 42" fill="none" xmlns="http://www.w3.org/2000/svg">
<g clip-path="url(#clip0_2163_8749)">
<path d="M50.05 0H34.45C33.3788 0 31.8786 0.6214 31.122 1.378L11.7806 20.7194C11.4159 21.0858 11.2112 21.5817 11.2112 22.0987C11.2112 22.6157 11.4159 23.1116 11.7806 23.478L28.522 40.2194C28.8884 40.5841 29.3844 40.7888 29.9013 40.7888C30.4183 40.7888 30.9142 40.5841 31.2806 40.2194L50.622 20.878C51.3812 20.1188 52 18.6212 52 17.55V1.95C51.9987 1.43325 51.7928 0.938057 51.4274 0.572658C51.062 0.207259 50.5668 0.00137252 50.05 0ZM40.3 15.6C39.7877 15.5998 39.2804 15.4988 38.8072 15.3025C38.3339 15.1063 37.9039 14.8188 37.5418 14.4564C37.1796 14.094 36.8924 13.6639 36.6965 13.1905C36.5006 12.7171 36.3999 12.2097 36.4 11.6974C36.4002 11.1851 36.5013 10.6778 36.6975 10.2045C36.8937 9.73128 37.1812 9.3013 37.5436 8.93915C37.906 8.577 38.3362 8.28977 38.8096 8.09387C39.283 7.89797 39.7903 7.79723 40.3026 7.7974C41.3373 7.79775 42.3295 8.20911 43.0609 8.94099C43.7923 9.67286 44.203 10.6653 44.2026 11.7C44.2023 12.7347 43.7909 13.7269 43.059 14.4583C42.3272 15.1896 41.3347 15.6003 40.3 15.6Z" fill="#E9742B"/>
<path d="M5.19999 22.1L27.3 0H24.05C22.9788 0 21.4786 0.6214 20.722 1.378L1.38059 20.7194C1.0159 21.0858 0.811157 21.5817 0.811157 22.0987C0.811157 22.6157 1.0159 23.1116 1.38059 23.478L18.122 40.2194C18.4884 40.5841 18.9843 40.7888 19.5013 40.7888C20.0183 40.7888 20.5142 40.5841 20.8806 40.2194L22.1026 38.9974L5.20259 22.0974L5.19999 22.1Z" fill="#E9742B"/>
</g>
<defs>
<clipPath id="clip0_2163_8749">
<rect width="52" height="41.6" fill="white"/>
</clipPath>
</defs>
</svg>
